P2
3 3
255
69 3 8
1 45 9
55 4 5